<?xml version="1.0" encoding="UTF-8" standalone="no"?><!DOCTYPE svg PUBLIC "-//W3C//DTD SVG 1.1//EN" "http://www.w3.org/Graphics/SVG/1.1/DTD/svg11.dtd"><svg width="100%" height="100%" viewBox="0 0 100 100" version="1.1" xmlns="http://www.w3.org/2000/svg" xmlns:xlink="http://www.w3.org/1999/xlink" xml:space="preserve" xmlns:serif="http://www.serif.com/" style="fill-rule:evenodd;clip-rule:evenodd;stroke-linejoin:round;stroke-miterlimit:2;"><path d="M50,2.9c25.995,0 47.1,21.105 47.1,47.1c0,25.995 -21.105,47.1 -47.1,47.1c-25.995,0 -47.1,-21.105 -47.1,-47.1c0,-25.995 21.105,-47.1 47.1,-47.1Zm0,10.202c20.364,0 36.898,16.534 36.898,36.898c0,20.364 -16.534,36.898 -36.898,36.898c-20.364,0 -36.898,-16.534 -36.898,-36.898c0,-20.364 16.534,-36.898 36.898,-36.898Z"/><path d="M50,2.9c25.995,0 47.1,21.105 47.1,47.1c0,25.995 -21.105,47.1 -47.1,47.1c-25.995,0 -47.1,-21.105 -47.1,-47.1c0,-25.995 21.105,-47.1 47.1,-47.1Zm0,10.202c20.364,0 36.898,16.534 36.898,36.898c0,20.364 -16.534,36.898 -36.898,36.898c-20.364,0 -36.898,-16.534 -36.898,-36.898c0,-20.364 16.534,-36.898 36.898,-36.898Z"/><path d="M73.57,62.927c-4.572,8.314 -13.417,13.955 -23.57,13.955c-14.836,0 -26.882,-12.046 -26.882,-26.882c0,-14.836 12.046,-26.882 26.882,-26.882c10.153,0 18.998,5.641 23.57,13.955l-9.689,5.077c-2.742,-4.833 -7.933,-8.096 -13.881,-8.096c-8.801,0 -15.946,7.145 -15.946,15.946c0,8.801 7.145,15.946 15.946,15.946c5.948,0 11.139,-3.263 13.881,-8.096l9.689,5.077Z"/><path d="M73.57,62.927c-4.572,8.314 -13.417,13.955 -23.57,13.955c-14.836,0 -26.882,-12.046 -26.882,-26.882c0,-14.836 12.046,-26.882 26.882,-26.882c10.153,0 18.998,5.641 23.57,13.955l-9.689,5.077c-2.742,-4.833 -7.933,-8.096 -13.881,-8.096c-8.801,0 -15.946,7.145 -15.946,15.946c0,8.801 7.145,15.946 15.946,15.946c5.948,0 11.139,-3.263 13.881,-8.096l9.689,5.077Z"/></svg>